HIERARCHY
ROOT HipCenter
{
    OFFSET 0.0 0.0 -0.0
    CHANNELS 6 Xposition Yposition Zposition Zrotation Xrotation Yrotation
    JOINT Spine
    {
        OFFSET 0.0 10.584936141967773 0.0
        CHANNELS 3 Zrotation Xrotation Yrotation
        JOINT ShoulderCenter
        {
            OFFSET 0.0 28.986366271972656 0.0
            CHANNELS 3 Zrotation Xrotation Yrotation
            JOINT LeftShoulder
            {
                OFFSET 17.241127014160156 0.0 0.0
                CHANNELS 3 Zrotation Xrotation Yrotation
                JOINT LeftElbow
                {
                    OFFSET 26.649410247802734 0.0 0.0
                    CHANNELS 3 Zrotation Xrotation Yrotation
                    JOINT LeftWrist
                    {
                        OFFSET 25.035261154174805 0.0 0.0
                        CHANNELS 3 Zrotation Xrotation Yrotation
                        JOINT LeftHand
                        {
                            OFFSET 4.346026420593262 0.0 0.0
                            CHANNELS 3 Zrotation Xrotation Yrotation
                            End Site
                            {
                                OFFSET 1.738410472869873 0.0 0.0
                            }
                        }
                    }
                }
            }
            JOINT RightShoulder
            {
                OFFSET -17.241127014160156 0.0 0.0
                CHANNELS 3 Zrotation Xrotation Yrotation
                JOINT RightElbow
                {
                    OFFSET -26.649410247802734 0.0 0.0
                    CHANNELS 3 Zrotation Xrotation Yrotation
                    JOINT RightWrist
                    {
                        OFFSET -25.035261154174805 0.0 0.0
                        CHANNELS 3 Zrotation Xrotation Yrotation
                        JOINT RightHand
                        {
                            OFFSET -4.346026420593262 0.0 0.0
                            CHANNELS 3 Zrotation Xrotation Yrotation
                            End Site
                            {
                                OFFSET -1.738410472869873 0.0 0.0
                            }
                        }
                    }
                }
            }
            End Site
            {
                OFFSET 0.0 11.594547271728516 0.0
            }
        }
    }
    JOINT LeftHip
    {
        OFFSET 12.265192031860352 0.0 0.0
        CHANNELS 3 Zrotation Xrotation Yrotation
        JOINT LeftKnee
        {
            OFFSET 0.0 -40.246559143066406 0.0
            CHANNELS 3 Zrotation Xrotation Yrotation
            JOINT LeftAnkle
            {
                OFFSET 0.0 -38.28546905517578 0.0
                CHANNELS 3 Zrotation Xrotation Yrotation
                JOINT LeftFoot
                {
                    OFFSET 0.0 -10.729779243469238 0.0
                    CHANNELS 3 Zrotation Xrotation Yrotation
                    End Site
                    {
                        OFFSET 0.0 0.0 4.291912078857422
                    }
                }
            }
        }
    }
    JOINT RightHip
    {
        OFFSET -12.265192031860352 0.0 0.0
        CHANNELS 3 Zrotation Xrotation Yrotation
        JOINT RightKnee
        {
            OFFSET 0.0 -40.246559143066406 0.0
            CHANNELS 3 Zrotation Xrotation Yrotation
            JOINT RightAnkle
            {
                OFFSET 0.0 -38.28546905517578 0.0
                CHANNELS 3 Zrotation Xrotation Yrotation
                JOINT RightFoot
                {
                    OFFSET 0.0 -10.729779243469238 0.0
                    CHANNELS 3 Zrotation Xrotation Yrotation
                    End Site
                    {
                        OFFSET 0.0 0.0 4.291912078857422
                    }
                }
            }
        }
    }
}
MOTION
Frames: 6
Frame Time: 0.03333333333333333
-38.10000228881836 -25.600000381469727 9.0 -67.59016536570505 -9.2032240265956 90.69281914512901 -2.31974922547034 -6.966984089444168 -1.0778430450949164 8.174297861318147e-07 6.80975709879218e-07 2.198445861736176 146.68020045934105 -1.1786001846968361 -117.43610426774443 -3.011695591045835e-06 -3.421257627638444e-07 48.6312707978853 -6.269218992790117e-06 -74.8087366170231 74.80198885012662 3.975693351829396e-15 0.0 0.0 -115.95422127752387 -14.427887842682921 124.64202831435568 4.647312344410415e-06 7.096204778448835e-07 -56.601014822642775 2.5967770252058695e-06 -2.693757708120483 -75.68781976338944 7.553817368475852e-15 -6.3611093629270335e-15 4.1932109831476505e-31 2.0242298028172154 -33.86402777903043 3.7803108903375477 4.54145758033022 30.02752781359325 -32.61321362303112 64.45190502260736 -63.62723368793418 109.33461104173458 1.7890620083232284e-15 -9.310583597449553e-33 -5.963540027744094e-16 156.01913409679005 -73.31454125774181 96.50986901983897 -87.16492512645698 40.89216918171116 95.95819931137176 -116.94910392204007 -66.53913153093974 -167.0275481667802 -6.3611093629270335e-15 1.5902773407317584e-15 8.827812596100317e-32
-36.599998474121094 -25.5 9.09999942779541 -67.3801281980797 -9.283552137217338 91.0700469148079 -2.081226154659815 -6.7555689346014045 -1.0447360721832948 -7.19936548017146e-07 -2.5421218876959935e-06 2.0571519672266265 146.35314890092275 -1.3578123238560222 -117.74386855281573 -8.896291465040421e-08 3.19291191471596e-06 48.674807756267704 -1.668423235158212e-06 -74.5496167561941 74.91777649487418 -5.963540027744096e-16 5.172546443027529e-33 -9.939233379573492e-16 -116.38136376169359 -14.832398852882182 124.11029804396135 -4.1043547881108215e-06 2.1563658674337505e-06 -55.61902970980033 5.030968944865801e-06 -3.7151942719603 -73.5560994436488 -7.95138670365879e-16 6.3611093629270335e-15 -3.1805546814635168e-15 2.404249525910938 -33.58810782727528 3.592828274062298 4.61782378134982 30.257216406298035 -33.28621870583266 56.01993005730602 -62.7904665384773 100.40302018927073 3.727212517340059e-17 1.0132937660852758e-33 3.115328462410066e-15 151.8674284385461 -74.61476103193212 92.56407511905512 -86.85945998938269 40.0954211370892 97.4318534125779 -116.27104634357035 -65.19688919573383 -167.1896734634807 1.2722218725854067e-14 2.648343778830095e-31 2.3854160110976376e-15
-35.20000076293945 -25.200000762939453 9.199999809265137 -68.09681726344819 -9.235847189958454 91.03065266258935 -1.7517607550542316 -7.648420732749441 -1.1312827212363858 2.604635250212951e-07 2.0962338054905965e-06 2.074887886227386 146.0472101736359 -1.6884437652053492 -118.33637490961534 -5.322330664347066e-06 1.4125331164200156e-06 48.660031929438205 2.365227462034436e-05 -75.1811492705813 74.0443592790709 -4.075085685625132e-15 -6.538960795060635e-32 1.838758175221096e-15 -115.06640013837941 -15.023520266957883 125.57229513827379 1.3674561114947856e-06 2.001017404175421e-06 -56.053134948474124 1.8436124819130836e-06 -2.008760776614437 -75.01180799342552 -7.951386703658792e-16 -6.361109362927032e-15 -3.180554681463516e-15 3.1049982103350455 -34.984949424163254 4.699386942224921 5.120045334676887 31.593928155352504 -35.0435208966307 46.6381639617639 -62.420639572844735 89.628170346419 0.0 0.0 1.93815050901683e-15 146.83131692060564 -75.05126725742228 88.1277814670762 -85.67997621441387 39.385935552123314 97.25397728990389 -117.61799590061088 -63.88147715989073 -169.2004620790643 0.0 0.0 0.0
-33.70000076293945 -24.69999885559082 9.300000190734863 -68.09683222541737 -9.235852330312383 91.17664626579669 -1.575242361167146 -7.652915059146604 -1.0585701927065931 2.088120001401188e-06 4.589242304490104e-07 2.398843460010603 146.3150352989286 -2.3787389859530603 -118.0656141761501 -3.181576904420528e-07 -3.2309318172676336e-06 48.23018212254113 1.3182398062417154e-05 -76.5822882085486 75.18438301644979 -4.050237602176197e-15 -6.3611093629270335e-15 4.460230979083603e-15 -114.57985532415418 -14.902934661337039 125.68996828898253 1.8072245775726065e-06 -3.5595712558287343e-06 -55.093558168977694 -5.439607387172976e-07 -1.33196880617893 -76.72960764981819 -2.3854160110976376e-15 6.361109362927033e-15 3.1805546814635164e-15 4.284680939195388 -36.497718015445805 8.159251400901171 7.34833771306988 33.24767014368389 -39.65655151199749 34.66930714262595 -60.36761242108216 77.28009272630085 6.896728590703373e-34 -1.5902773407317584e-15 4.969616689786745e-17 139.88589469664254 -76.38448787967347 82.17643217199713 -83.6474038219746 39.21136335319156 95.50005409274343 -119.24397356394641 -64.45040643449126 -170.87290473887853 -6.361109362927033e-15 2.2069531490250793e-31 -3.975693351829395e-15
-32.400001525878906 -24.200000762939453 9.399999618530273 -68.80594353250957 -9.18723803823165 92.5244602318103 -1.826531071778803 -7.865435311050953 -1.0708821554427512 1.6711961751646844e-06 3.79391624590727e-07 1.3726250992550182 145.73347794030244 -2.436531036346483 -117.67183703031554 -3.1518905013714972e-06 -1.848085396613546e-06 47.506232439676914 -8.597065512501305e-06 -74.49091463176079 74.90656050287014 9.939233379573489e-17 -1.939704916135324e-34 -2.236327510404035e-16 -115.20044660701797 -14.90551385939791 124.90475195180929 -4.1719645293618936e-06 -4.307524287413033e-06 -53.3847504007688 -1.9021349734394234e-06 -3.631054984735581 -75.89862498872209 -7.951386703658792e-16 -2.2069531490250793e-32 3.1805546814635168e-15 4.288565408501588 -40.14701559233528 11.600529206009366 11.074067144896095 36.056013714619915 -45.34659725336129 22.6443787185559 -56.81311266192049 63.08434396961062 -7.951386703658792e-16 1.5902773407317584e-15 -1.8542882273766793e-15 137.77973862153627 -77.93115750005312 80.74376232274861 -81.60009726194264 38.273786522778636 95.83064888693917 -119.1476173030196 -63.617364520949074 -171.68053860110106 3.310429723537619e-32 -1.5902773407317582e-15 2.385416011097637e-15
-31.0 -23.399999618530273 9.399999618530273 -69.82934731710368 -9.248328219267842 92.09618266664265 -1.3155381175905405 -8.374986095483475 -1.046874942937226 2.885923580791685e-06 2.262590740349673e-06 1.7997437924264708 145.43763715135182 -2.434210307366021 -117.09221568123634 -5.377815553527951e-06 -1.148771067013625e-06 47.00280229850731 -7.538878756906662e-06 -75.96385132649907 73.99599951462581 7.951386703658792e-16 2.4138550067461804e-32 3.4787316828507214e-15 -116.22106766306315 -14.718601299580726 123.92659663987757 -6.257616085136226e-06 -3.4617642817139505e-06 -52.51421066482136 5.622831887105793e-07 -3.083170883811579 -75.92332055222244 -1.5902773407317584e-15 6.3611093629270335e-15 8.827812596100317e-32 6.213268534245109 -44.545800655283735 17.23671039912296 15.89231567907643 39.98712626295095 -54.7354966333387 18.888205354480238 -53.73911300301224 57.84396334205016 5.517382872562698e-33 -3.1805546814635164e-15 1.9878466759146977e-16 130.84341837985934 -78.45928552221147 74.7683922838273 -78.56674814844173 38.427376860888536 93.57653794075969 -121.66698464326899 -64.87482880834492 -173.82477145417653 -7.724336021587778e-32 -1.5902773407317584e-15 -5.565970692561154e-15
